<svg xmlns="http://www.w3.org/2000/svg" width="292" height="101">
    <g fill="none" fill-rule="evenodd">
        <g stroke="#554d56">
            <path fill="#FFF" d="M5.696 72.577l.433 23.046 38.668.882 1.875-21.9"/>
            <path fill="#FFF" d="M2.041 57.944L1.408 73.16l49.517 1.423 2.19-13.303z"/>
            <path d="M23.294 57.98s-13.405-2.11-9.77-8.35c3.637-6.241 11.477 8.142 11.477 9.495 0 1.353-5.299 2.877-3.503-.072 1.796-2.95 9.137-6.344 10.88-3.172 1.741 3.172-11.783-.258-13.547 3.751-1.764 4.01 1.63 4.236 1.63 6.755s-2.14 5.056-1.07 7.804" stroke-linecap="round" stroke-linejoin="round"/>
            <path d="M23.074 58.463s3 .852 3 4.05c0 3.197-2.031 5.026-1.015 7.432" stroke-linecap="round" stroke-linejoin="round"/>
            <g>
                <path fill="#FFF" d="M37.883 94.391L35.44 40.342l39.6-.268-6.927 54.675z"/>
                <path fill="#FFF" d="M32.636 25.771l1.137 15.93 43.37-.446.113-18.919z"/>
                <path d="M53.975 23.052s9.188-13.229 12.635-6.615c3.447 6.615-7.74 3.695-11.595 7.856-3.855 4.16-3.538-1.732-1.769-3.293 1.769-1.56 2.172 4.607-2.043 3.293-6.416 1.785-14.562-13.291-3.792-6.498s10.37 8.258 8.102 13.679c-2.267 5.421 3.113 8.622 3.113 11.614 0 2.992-3.38 9.373-3.38 12.122" stroke-linecap="round" stroke-linejoin="round"/>
            </g>
            <g fill="#FFF">
                <path d="M50.865 74.338l4.95 22.49 47.234.082.807-25.747z"/>
                <path d="M49.18 70.756l.117 5.567 56.852-2.846.382-5.622z"/>
                <path d="M72.755 68.969s-23.656-6.615-12.716-10.574c10.94-3.959 12.716 8.919 12.716 8.919s3.433-2.407 5.188-.36c1.754 2.048 5.722-4.203 11.68-4.203 5.957 0 3.176 5.146 1.588 7.643-1.589 2.497-14.045-.844-14.045-.844s4.646 7.869 4.362 11.66c-.173 2.31-5.455.607-5.605.834-.315.477-.337-10.593-.716-12.494-1.271 1.488-6.876 9.061-6.876 13.234-3.587-1.16-6.244-2.143-6.244-2.143L72.755 68.97z" stroke-linecap="round" stroke-linejoin="round"/>
            </g>
        </g>
        <g stroke="#554d56" stroke-linecap="round" stroke-linejoin="round">
            <path d="M202.114 84.697s-1.183-17.235 20.842-27.08c22.024-9.844 33.87-.842 35.812 1.674 1.942 2.515 7.066 15.363-16.007 27.2s-33.852 5.022-39.427 1.843"/>
            <path d="M202.158 85.114s6.467-18.249 25.522-24.435 30.108-2.746 30.108-2.746M259.068 60.138s.245 8.339-15.122 17.694c-15.367 9.354-30.198 13.841-41.697 8.148M258.909 59.026s-38.966 16.225-55.594 26.34"/>
            <path d="M203.203 75.039l-12.835 5.532 11.13 6.151-.705 13.251 10.688-6.475M230.763 51.42c-17.642-34.963-3.9 76.274 6.083 39.936M222.25 55.424c-31.75-14.053 25.915 52.97 24.669 31.29"/>
        </g>
        <g transform="translate(74)">
            <rect fill="#E4E1E3" width="144" height="90" rx="6"/>
            <path fill="#BCB5B9" d="M0 15h144v18H0zM9 60h72v6H9zM9 69h36v6H9z"/>
            <path fill="#FFF" d="M9 39h126v15H9z"/>
        </g>
    </g>
</svg>