<svg xmlns="http://www.w3.org/2000/svg" width="18" height="18">
  <g fill="#554d56" fill-rule="evenodd">
    <g transform="translate(1 1)">
      <path d="M1 2c0 3.87 3.13 7 7 7s7-3.13 7-7h-2c0 2.76-2.24 5-5 5S3 4.76 3 2H1z"/>
      <rect width="16" height="2" rx="1"/>
    </g>
    <g transform="matrix(1 0 0 -1 1 18)">
      <path d="M1 2c0 3.87 3.13 7 7 7s7-3.13 7-7h-2c0 2.76-2.24 5-5 5S3 4.76 3 2H1z"/>
      <rect width="16" height="2" rx="1"/>
    </g>
    <path d="M3 16c0-.55.43-1.13.96-1.28C3.96 14.72 6 14 9 14s5.06.73 5.06.73c.52.15.94.7.94 1.27 0 .55-.46 1-1 1H4c-.55 0-1-.44-1-1z"/>
  </g>
</svg>
