<svg width="12" height="12" viewBox="0 0 12 12" xmlns="http://www.w3.org/2000/svg">
    <g fill="#FFF" fill-rule="evenodd">
        <path d="M3.976 3.606c-.398.035-.75-.256-.784-.657L3.002.785C2.97.388 3.26.038 3.66.003c.4-.035.75.257.784.657l.19 2.163c.034.398-.257.748-.658.783z"/>
        <path d="M2.94 5.584c-.256.307-.71.348-1.018.09L.26 4.278c-.307-.256-.35-.71-.09-1.02.257-.305.71-.347 1.02-.088L2.85 4.565c.306.257.348.71.09 1.02z"
              opacity=".3"/>
        <path d="M3.606 7.785c.035.4-.256.75-.657.784l-2.164.188C.388 8.793.038 8.502.003 8.1c-.035-.397.257-.748.657-.783l2.163-.19c.398-.034.748.258.783.658z"
              opacity=".4"/>
        <path d="M5.21 8.795c.306.257.347.71.09 1.02l-1.397 1.662c-.256.306-.71.348-1.02.09-.305-.258-.347-.712-.088-1.02L4.19 8.884c.257-.306.71-.348 1.02-.09z"
              opacity=".5"/>
        <path d="M7.41 8.253c.4-.035.75.257.784.657l.19 2.163c.034.398-.257.748-.658.783-.398.035-.75-.256-.784-.657l-.19-2.164c-.034-.398.258-.748.658-.783z"
              opacity=".6"/>
        <path d="M8.795 6.634c.257-.306.71-.348 1.02-.09l1.662 1.396c.306.257.348.71.09 1.02-.258.306-.712.347-1.02.09L8.884 7.652c-.306-.256-.348-.71-.09-1.02z"
              opacity=".7"/>
        <path d="M8.253 4.35c-.035-.397.257-.748.657-.783l2.163-.19c.398-.034.748.258.783.658.035.4-.256.75-.657.784l-2.164.188c-.398.035-.748-.256-.783-.657z"
              opacity=".85"/>
        <path d="M6.26 2.94c-.307-.256-.35-.71-.09-1.018L7.565.26c.257-.307.71-.35 1.02-.09.306.257.347.71.09 1.02L7.277 2.85c-.256.306-.71.348-1.02.09z"
              opacity=".95"/>
    </g>
</svg>