<svg xmlns="http://www.w3.org/2000/svg" width="28" height="28" viewBox="0 0 28 28">
    <g fill="none" fill-rule="evenodd">
        <path fill="#FFF" d="M14 28C6.268 28 0 21.732 0 14S6.268 0 14 0s14 6.268 14 14-6.268 14-14 14zm0-7a7 7 0 1 0 0-14 7 7 0 0 0 0 14z"/>
        <path fill="#EE6723" d="M22.385 25.213c-4.956 3.716-11.814 3.716-16.77 0l5.054-5.054a7.015 7.015 0 0 0 6.662 0l5.054 5.054zm2.828-2.828l-5.054-5.054a7.015 7.015 0 0 0 0-6.662l5.054-5.054c3.716 4.956 3.716 11.814 0 16.77zM2.787 5.615l5.054 5.054a7.015 7.015 0 0 0 0 6.662l-5.054 5.054c-3.716-4.956-3.716-11.814 0-16.77zm2.828-2.828c4.956-3.716 11.814-3.716 16.77 0L17.331 7.84a7.015 7.015 0 0 0-6.662 0L5.615 2.787z"/>
        <path fill="#554d56" fill-opacity=".2" d="M14 22a8 8 0 1 1 0-16 8 8 0 0 1 0 16zm0-1a7 7 0 1 0 0-14 7 7 0 0 0 0 14z"/>
        <path fill="#554d56" fill-opacity=".2" d="M14 28C6.268 28 0 21.732 0 14S6.268 0 14 0s14 6.268 14 14-6.268 14-14 14zm0-1c7.18 0 13-5.82 13-13S21.18 1 14 1 1 6.82 1 14s5.82 13 13 13z"/>
    </g>
</svg>
