<svg xmlns="http://www.w3.org/2000/svg" width="24" height="24" viewBox="0 0 24 24">
    <path fill="#C1BEC1" fill-rule="evenodd" d="M11.437 7.5a2 2 0 0 1-3.874 0H4.5a.5.5 0 0 1 0-1H7.563a2 2 0 0 1 3.874 0H19.5a.5.5 0 1 1 0 1h-8.063zm-1.07 0a.995.995 0 0 0 0-1 1 1 0 1 0 0 1zm3.196 4a2 2 0 0 1 3.874 0H19.5a.5.5 0 1 1 0 1h-2.063a2 2 0 0 1-3.874 0H4.5a.5.5 0 1 1 0-1h9.063zm1.07 0a.995.995 0 0 0 0 1 1 1 0 1 0 0-1zm-5.196 6a2 2 0 0 1-3.874 0H4.5a.5.5 0 1 1 0-1h1.063a2 2 0 0 1 3.874 0H19.5a.5.5 0 1 1 0 1H9.437zm-1.07 0a.995.995 0 0 0 0-1 1 1 0 1 0 0 1z"/>
</svg>
