<svg xmlns="http://www.w3.org/2000/svg" width="48" height="48" xmlns:xlink="http://www.w3.org/1999/xlink">
    <defs>
        <path id="a" d="M2.72 17.198c-5.427-3.754 0-14.076 15.697-13.138 20.48.938 33.484 25.375 8.723 34.722-17.16 4.982-29.847-6.57-23.516-12.2 3.11-3.51 4.523-5.63-.904-9.384z"/>
        <mask id="b" width="40" height="36" x="0" y="0" fill="#fff">
            <use xlink:href="#a"/>
        </mask>
    </defs>
    <g fill="none" fill-rule="evenodd" transform="translate(4 4)">
        <use stroke="#BCB5B9" stroke-width="4" mask="url(#b)" xlink:href="#a"/>
        <path fill="#C8CF2D" d="M7.647 25.27C7.647 22 13 22.5 17.5 22.5c6.11.28 8 2.77 6.5 6.5 3 3.5.876 3.848-3.5 5.5-6.5 4-14.007-1.325-11-4 1.478-1.667-1.853-1.962-1.853-5.23z"/>
        <path fill="#F69833" d="M31 25.635c0-1.91-3.928-1.62-7.23-1.62-4.483.165-4.77 1.62-4.77 3.802 0 2.34 1.56 2.25 4.77 3.216 3.67 2.632 8.077-.775 5.87-2.34-1.084-.974 1.36-1.146 1.36-3.058z"/>
        <path fill="#554d56" d="M42.725.183l-16.237 12.9-3.696 3.693c-1.972.104-5.996 1.47-7.21 5.92-1.243 4.555-3.26 6.632-3.277 6.65-.264.262-.366.646-.27 1.006.1.36.385.638.746.73.12.03 1.545.377 3.46.377 2.02 0 4.585-.387 6.76-1.92 2.448-1.73 3.87-4.52 4.226-8.3 0-.01 3.65-3.68 3.65-3.68.02-.03 12.945-16.287 12.945-16.287.258-.308.24-.764-.044-1.048-.286-.287-.74-.305-1.05-.045zm-20.91 27.66c-2.235 1.585-5.12 1.644-6.895 1.48.808-1.22 1.874-3.215 2.657-6.082 1.035-3.79 4.557-4.32 5.226-4.39l2.342 2.34c-.317 3.07-1.435 5.31-3.33 6.656zm2.138-10.036l3.035-3.035 2.24 2.24-3.034 3.036-2.24-2.24z"/>
    </g>
</svg>
